M48
; DRILL file {KiCad (5.1.6)-1} date 03/29/21 08:13:33
; FORMAT={-:-/ absolute / inch / decimal}
; #@! TF.CreationDate,2021-03-29T08:13:33+01:00
; #@! TF.GenerationSoftware,Kicad,Pcbnew,(5.1.6)-1
; #@! TF.FileFunction,Plated,1,2,PTH
FMAT,2
INCH
T1C0.0157
T2C0.0346
%
G90
G05
T1
X6.15Y-3.765
X6.1848Y-3.8852
X6.3325Y-3.805
X6.335Y-3.7
X6.405Y-3.67
X6.435Y-3.73
X6.455Y-3.8304
X6.455Y-3.8796
X6.5Y-3.69
X6.5042Y-3.8304
X6.5042Y-3.8796
X6.555Y-3.785
X6.5977Y-3.865
X6.6Y-3.715
X6.6298Y-3.925
X6.66Y-3.6537
X6.725Y-3.8415
T2
X6.805Y-3.65
X6.805Y-3.75
X6.805Y-3.85
X6.805Y-3.95
X6.075Y-3.7
X6.075Y-3.8
X6.075Y-3.9
T0
M30
