%TF.GenerationSoftware,KiCad,Pcbnew,(5.1.6)-1*%
%TF.CreationDate,2021-03-29T07:56:47+01:00*%
%TF.ProjectId,ow2i2c3,6f773269-3263-4332-9e6b-696361645f70,rev?*%
%TF.SameCoordinates,Original*%
%TF.FileFunction,Copper,L2,Bot*%
%TF.FilePolarity,Positive*%
%FSLAX46Y46*%
G04 Gerber Fmt 4.6, Leading zero omitted, Abs format (unit mm)*
G04 Created by KiCad (PCBNEW (5.1.6)-1) date 2021-03-29 07:56:47*
%MOMM*%
%LPD*%
G01*
G04 APERTURE LIST*
%TA.AperFunction,ComponentPad*%
%ADD10R,1.600000X1.600000*%
%TD*%
%TA.AperFunction,ComponentPad*%
%ADD11C,1.600000*%
%TD*%
%TA.AperFunction,ViaPad*%
%ADD12C,0.800000*%
%TD*%
%TA.AperFunction,Conductor*%
%ADD13C,0.250000*%
%TD*%
%TA.AperFunction,Conductor*%
%ADD14C,0.254000*%
%TD*%
G04 APERTURE END LIST*
D10*
%TO.P,J1,1*%
%TO.N,GND*%
X154305000Y-99060000D03*
D11*
%TO.P,J1,2*%
%TO.N,/ONEWIRE*%
X154305000Y-96520000D03*
%TO.P,J1,3*%
%TO.N,VCC*%
X154305000Y-93980000D03*
%TD*%
%TO.P,J2,4*%
%TO.N,+3V3*%
X169037000Y-100330000D03*
%TO.P,J2,2*%
%TO.N,/SCL3*%
X169037000Y-95250000D03*
D10*
%TO.P,J2,1*%
%TO.N,GND*%
X169037000Y-92710000D03*
D11*
%TO.P,J2,3*%
%TO.N,/SDA3*%
X169037000Y-97790000D03*
%TD*%
D12*
%TO.N,GND*%
X163957000Y-97292000D03*
X163957000Y-98542000D03*
X165207000Y-98542000D03*
X165207000Y-97292000D03*
X156210000Y-95631000D03*
X162687000Y-93218000D03*
%TO.N,+3V3*%
X163449000Y-94742000D03*
X160909000Y-93980000D03*
X160845500Y-96647000D03*
X165100010Y-93726000D03*
X157094347Y-98683653D03*
%TD*%
D13*
%TO.N,GND*%
X156210000Y-97155000D02*
X154305000Y-99060000D01*
X156210000Y-95631000D02*
X156210000Y-97155000D01*
X162433000Y-92964000D02*
X162687000Y-93218000D01*
X160083500Y-92964000D02*
X162433000Y-92964000D01*
X156210000Y-95631000D02*
X157416500Y-95631000D01*
X157416500Y-95631000D02*
X160083500Y-92964000D01*
X165207000Y-94889000D02*
X165989000Y-94107000D01*
X165207000Y-97292000D02*
X165207000Y-94889000D01*
X163322000Y-92583000D02*
X162687000Y-93218000D01*
X165989000Y-93057952D02*
X165514048Y-92583000D01*
X165989000Y-94107000D02*
X165989000Y-93057952D01*
X165514048Y-92583000D02*
X163322000Y-92583000D01*
X166336952Y-92710000D02*
X165989000Y-93057952D01*
X169037000Y-92710000D02*
X166336952Y-92710000D01*
%TO.N,+3V3*%
X163449000Y-94742000D02*
X162560000Y-94742000D01*
X160909000Y-93980000D02*
X162115500Y-95186500D01*
X162560000Y-94742000D02*
X162115500Y-95186500D01*
X162115500Y-95186500D02*
X160845500Y-96456500D01*
X160845500Y-96456500D02*
X160845500Y-96647000D01*
X160845500Y-97345500D02*
X160845500Y-96647000D01*
X164465000Y-93726000D02*
X165100010Y-93726000D01*
X163449000Y-94742000D02*
X164465000Y-93726000D01*
X160845500Y-97345500D02*
X159507347Y-98683653D01*
X159507347Y-98683653D02*
X157094347Y-98683653D01*
X160845500Y-97345500D02*
X163830000Y-100330000D01*
X163830000Y-100330000D02*
X167640010Y-100330000D01*
X167640010Y-100330000D02*
X169037000Y-100330000D01*
%TD*%
D14*
%TO.N,GND*%
G36*
X180061001Y-101194000D02*
G01*
X169843185Y-101194000D01*
X169954342Y-101082843D01*
X170083588Y-100889413D01*
X170172614Y-100674485D01*
X170218000Y-100446318D01*
X170218000Y-100213682D01*
X170172614Y-99985515D01*
X170083588Y-99770587D01*
X169954342Y-99577157D01*
X169789843Y-99412658D01*
X169596413Y-99283412D01*
X169381485Y-99194386D01*
X169153318Y-99149000D01*
X168920682Y-99149000D01*
X168692515Y-99194386D01*
X168477587Y-99283412D01*
X168284157Y-99412658D01*
X168119658Y-99577157D01*
X167990412Y-99770587D01*
X167968288Y-99824000D01*
X164039592Y-99824000D01*
X161889274Y-97673682D01*
X167856000Y-97673682D01*
X167856000Y-97906318D01*
X167901386Y-98134485D01*
X167990412Y-98349413D01*
X168119658Y-98542843D01*
X168284157Y-98707342D01*
X168477587Y-98836588D01*
X168692515Y-98925614D01*
X168920682Y-98971000D01*
X169153318Y-98971000D01*
X169381485Y-98925614D01*
X169596413Y-98836588D01*
X169789843Y-98707342D01*
X169954342Y-98542843D01*
X170083588Y-98349413D01*
X170172614Y-98134485D01*
X170218000Y-97906318D01*
X170218000Y-97673682D01*
X170172614Y-97445515D01*
X170083588Y-97230587D01*
X169954342Y-97037157D01*
X169789843Y-96872658D01*
X169596413Y-96743412D01*
X169381485Y-96654386D01*
X169153318Y-96609000D01*
X168920682Y-96609000D01*
X168692515Y-96654386D01*
X168477587Y-96743412D01*
X168284157Y-96872658D01*
X168119658Y-97037157D01*
X167990412Y-97230587D01*
X167901386Y-97445515D01*
X167856000Y-97673682D01*
X161889274Y-97673682D01*
X161406296Y-97190705D01*
X161452142Y-97144859D01*
X161537613Y-97016942D01*
X161596487Y-96874809D01*
X161626500Y-96723922D01*
X161626500Y-96570078D01*
X161596804Y-96420787D01*
X162455723Y-95561869D01*
X162475027Y-95546027D01*
X162490870Y-95526722D01*
X162490874Y-95526717D01*
X162769592Y-95248000D01*
X162850499Y-95248000D01*
X162951141Y-95348642D01*
X163079058Y-95434113D01*
X163221191Y-95492987D01*
X163372078Y-95523000D01*
X163525922Y-95523000D01*
X163676809Y-95492987D01*
X163818942Y-95434113D01*
X163946859Y-95348642D01*
X164055642Y-95239859D01*
X164126586Y-95133682D01*
X167856000Y-95133682D01*
X167856000Y-95366318D01*
X167901386Y-95594485D01*
X167990412Y-95809413D01*
X168119658Y-96002843D01*
X168284157Y-96167342D01*
X168477587Y-96296588D01*
X168692515Y-96385614D01*
X168920682Y-96431000D01*
X169153318Y-96431000D01*
X169381485Y-96385614D01*
X169596413Y-96296588D01*
X169789843Y-96167342D01*
X169954342Y-96002843D01*
X170083588Y-95809413D01*
X170172614Y-95594485D01*
X170218000Y-95366318D01*
X170218000Y-95133682D01*
X170172614Y-94905515D01*
X170083588Y-94690587D01*
X169954342Y-94497157D01*
X169789843Y-94332658D01*
X169596413Y-94203412D01*
X169381485Y-94114386D01*
X169153318Y-94069000D01*
X168920682Y-94069000D01*
X168692515Y-94114386D01*
X168477587Y-94203412D01*
X168284157Y-94332658D01*
X168119658Y-94497157D01*
X167990412Y-94690587D01*
X167901386Y-94905515D01*
X167856000Y-95133682D01*
X164126586Y-95133682D01*
X164141113Y-95111942D01*
X164199987Y-94969809D01*
X164230000Y-94818922D01*
X164230000Y-94676591D01*
X164588050Y-94318541D01*
X164602151Y-94332642D01*
X164730068Y-94418113D01*
X164872201Y-94476987D01*
X165023088Y-94507000D01*
X165176932Y-94507000D01*
X165327819Y-94476987D01*
X165469952Y-94418113D01*
X165597869Y-94332642D01*
X165706652Y-94223859D01*
X165792123Y-94095942D01*
X165850997Y-93953809D01*
X165881010Y-93802922D01*
X165881010Y-93649078D01*
X165850997Y-93498191D01*
X165792123Y-93356058D01*
X165706652Y-93228141D01*
X165597869Y-93119358D01*
X165469952Y-93033887D01*
X165327819Y-92975013D01*
X165176932Y-92945000D01*
X165023088Y-92945000D01*
X164872201Y-92975013D01*
X164730068Y-93033887D01*
X164602151Y-93119358D01*
X164501509Y-93220000D01*
X164489846Y-93220000D01*
X164465000Y-93217553D01*
X164440154Y-93220000D01*
X164440146Y-93220000D01*
X164365807Y-93227322D01*
X164270425Y-93256255D01*
X164182521Y-93303241D01*
X164105473Y-93366473D01*
X164089628Y-93385780D01*
X163514409Y-93961000D01*
X163372078Y-93961000D01*
X163221191Y-93991013D01*
X163079058Y-94049887D01*
X162951141Y-94135358D01*
X162850499Y-94236000D01*
X162584854Y-94236000D01*
X162560000Y-94233552D01*
X162535146Y-94236000D01*
X162460807Y-94243322D01*
X162365425Y-94272255D01*
X162277521Y-94319241D01*
X162200473Y-94382473D01*
X162184629Y-94401779D01*
X162115500Y-94470908D01*
X161690000Y-94045409D01*
X161690000Y-93903078D01*
X161659987Y-93752191D01*
X161601113Y-93610058D01*
X161515642Y-93482141D01*
X161406859Y-93373358D01*
X161278942Y-93287887D01*
X161136809Y-93229013D01*
X160985922Y-93199000D01*
X160832078Y-93199000D01*
X160681191Y-93229013D01*
X160539058Y-93287887D01*
X160411141Y-93373358D01*
X160302358Y-93482141D01*
X160216887Y-93610058D01*
X160158013Y-93752191D01*
X160128000Y-93903078D01*
X160128000Y-94056922D01*
X160158013Y-94207809D01*
X160216887Y-94349942D01*
X160302358Y-94477859D01*
X160411141Y-94586642D01*
X160539058Y-94672113D01*
X160681191Y-94730987D01*
X160832078Y-94761000D01*
X160974409Y-94761000D01*
X161399908Y-95186500D01*
X160708448Y-95877960D01*
X160617691Y-95896013D01*
X160475558Y-95954887D01*
X160347641Y-96040358D01*
X160238858Y-96149141D01*
X160153387Y-96277058D01*
X160094513Y-96419191D01*
X160064500Y-96570078D01*
X160064500Y-96723922D01*
X160094513Y-96874809D01*
X160153387Y-97016942D01*
X160238858Y-97144859D01*
X160284704Y-97190705D01*
X159297756Y-98177653D01*
X157692848Y-98177653D01*
X157592206Y-98077011D01*
X157464289Y-97991540D01*
X157322156Y-97932666D01*
X157171269Y-97902653D01*
X157017425Y-97902653D01*
X156866538Y-97932666D01*
X156724405Y-97991540D01*
X156596488Y-98077011D01*
X156487705Y-98185794D01*
X156402234Y-98313711D01*
X156343360Y-98455844D01*
X156313347Y-98606731D01*
X156313347Y-98760575D01*
X156343360Y-98911462D01*
X156402234Y-99053595D01*
X156487705Y-99181512D01*
X156596488Y-99290295D01*
X156724405Y-99375766D01*
X156866538Y-99434640D01*
X157017425Y-99464653D01*
X157171269Y-99464653D01*
X157322156Y-99434640D01*
X157464289Y-99375766D01*
X157592206Y-99290295D01*
X157692848Y-99189653D01*
X159482501Y-99189653D01*
X159507347Y-99192100D01*
X159532193Y-99189653D01*
X159532201Y-99189653D01*
X159606540Y-99182331D01*
X159701922Y-99153398D01*
X159789826Y-99106412D01*
X159866874Y-99043180D01*
X159882723Y-99023868D01*
X160845500Y-98061091D01*
X163454628Y-100670220D01*
X163470473Y-100689527D01*
X163547521Y-100752759D01*
X163635425Y-100799745D01*
X163708607Y-100821944D01*
X163730806Y-100828678D01*
X163740694Y-100829652D01*
X163805146Y-100836000D01*
X163805153Y-100836000D01*
X163829999Y-100838447D01*
X163854845Y-100836000D01*
X167968288Y-100836000D01*
X167990412Y-100889413D01*
X168119658Y-101082843D01*
X168230815Y-101194000D01*
X143281000Y-101194000D01*
X143281000Y-96403682D01*
X153124000Y-96403682D01*
X153124000Y-96636318D01*
X153169386Y-96864485D01*
X153258412Y-97079413D01*
X153387658Y-97272843D01*
X153552157Y-97437342D01*
X153745587Y-97566588D01*
X153960515Y-97655614D01*
X154188682Y-97701000D01*
X154421318Y-97701000D01*
X154649485Y-97655614D01*
X154864413Y-97566588D01*
X155057843Y-97437342D01*
X155222342Y-97272843D01*
X155351588Y-97079413D01*
X155440614Y-96864485D01*
X155486000Y-96636318D01*
X155486000Y-96403682D01*
X155440614Y-96175515D01*
X155351588Y-95960587D01*
X155222342Y-95767157D01*
X155057843Y-95602658D01*
X154864413Y-95473412D01*
X154649485Y-95384386D01*
X154421318Y-95339000D01*
X154188682Y-95339000D01*
X153960515Y-95384386D01*
X153745587Y-95473412D01*
X153552157Y-95602658D01*
X153387658Y-95767157D01*
X153258412Y-95960587D01*
X153169386Y-96175515D01*
X153124000Y-96403682D01*
X143281000Y-96403682D01*
X143281000Y-93863682D01*
X153124000Y-93863682D01*
X153124000Y-94096318D01*
X153169386Y-94324485D01*
X153258412Y-94539413D01*
X153387658Y-94732843D01*
X153552157Y-94897342D01*
X153745587Y-95026588D01*
X153960515Y-95115614D01*
X154188682Y-95161000D01*
X154421318Y-95161000D01*
X154649485Y-95115614D01*
X154864413Y-95026588D01*
X155057843Y-94897342D01*
X155222342Y-94732843D01*
X155351588Y-94539413D01*
X155440614Y-94324485D01*
X155486000Y-94096318D01*
X155486000Y-93863682D01*
X155440614Y-93635515D01*
X155351588Y-93420587D01*
X155222342Y-93227157D01*
X155057843Y-93062658D01*
X154864413Y-92933412D01*
X154649485Y-92844386D01*
X154421318Y-92799000D01*
X154188682Y-92799000D01*
X153960515Y-92844386D01*
X153745587Y-92933412D01*
X153552157Y-93062658D01*
X153387658Y-93227157D01*
X153258412Y-93420587D01*
X153169386Y-93635515D01*
X153124000Y-93863682D01*
X143281000Y-93863682D01*
X143281000Y-91846000D01*
X180061000Y-91846000D01*
X180061001Y-101194000D01*
G37*
X180061001Y-101194000D02*
X169843185Y-101194000D01*
X169954342Y-101082843D01*
X170083588Y-100889413D01*
X170172614Y-100674485D01*
X170218000Y-100446318D01*
X170218000Y-100213682D01*
X170172614Y-99985515D01*
X170083588Y-99770587D01*
X169954342Y-99577157D01*
X169789843Y-99412658D01*
X169596413Y-99283412D01*
X169381485Y-99194386D01*
X169153318Y-99149000D01*
X168920682Y-99149000D01*
X168692515Y-99194386D01*
X168477587Y-99283412D01*
X168284157Y-99412658D01*
X168119658Y-99577157D01*
X167990412Y-99770587D01*
X167968288Y-99824000D01*
X164039592Y-99824000D01*
X161889274Y-97673682D01*
X167856000Y-97673682D01*
X167856000Y-97906318D01*
X167901386Y-98134485D01*
X167990412Y-98349413D01*
X168119658Y-98542843D01*
X168284157Y-98707342D01*
X168477587Y-98836588D01*
X168692515Y-98925614D01*
X168920682Y-98971000D01*
X169153318Y-98971000D01*
X169381485Y-98925614D01*
X169596413Y-98836588D01*
X169789843Y-98707342D01*
X169954342Y-98542843D01*
X170083588Y-98349413D01*
X170172614Y-98134485D01*
X170218000Y-97906318D01*
X170218000Y-97673682D01*
X170172614Y-97445515D01*
X170083588Y-97230587D01*
X169954342Y-97037157D01*
X169789843Y-96872658D01*
X169596413Y-96743412D01*
X169381485Y-96654386D01*
X169153318Y-96609000D01*
X168920682Y-96609000D01*
X168692515Y-96654386D01*
X168477587Y-96743412D01*
X168284157Y-96872658D01*
X168119658Y-97037157D01*
X167990412Y-97230587D01*
X167901386Y-97445515D01*
X167856000Y-97673682D01*
X161889274Y-97673682D01*
X161406296Y-97190705D01*
X161452142Y-97144859D01*
X161537613Y-97016942D01*
X161596487Y-96874809D01*
X161626500Y-96723922D01*
X161626500Y-96570078D01*
X161596804Y-96420787D01*
X162455723Y-95561869D01*
X162475027Y-95546027D01*
X162490870Y-95526722D01*
X162490874Y-95526717D01*
X162769592Y-95248000D01*
X162850499Y-95248000D01*
X162951141Y-95348642D01*
X163079058Y-95434113D01*
X163221191Y-95492987D01*
X163372078Y-95523000D01*
X163525922Y-95523000D01*
X163676809Y-95492987D01*
X163818942Y-95434113D01*
X163946859Y-95348642D01*
X164055642Y-95239859D01*
X164126586Y-95133682D01*
X167856000Y-95133682D01*
X167856000Y-95366318D01*
X167901386Y-95594485D01*
X167990412Y-95809413D01*
X168119658Y-96002843D01*
X168284157Y-96167342D01*
X168477587Y-96296588D01*
X168692515Y-96385614D01*
X168920682Y-96431000D01*
X169153318Y-96431000D01*
X169381485Y-96385614D01*
X169596413Y-96296588D01*
X169789843Y-96167342D01*
X169954342Y-96002843D01*
X170083588Y-95809413D01*
X170172614Y-95594485D01*
X170218000Y-95366318D01*
X170218000Y-95133682D01*
X170172614Y-94905515D01*
X170083588Y-94690587D01*
X169954342Y-94497157D01*
X169789843Y-94332658D01*
X169596413Y-94203412D01*
X169381485Y-94114386D01*
X169153318Y-94069000D01*
X168920682Y-94069000D01*
X168692515Y-94114386D01*
X168477587Y-94203412D01*
X168284157Y-94332658D01*
X168119658Y-94497157D01*
X167990412Y-94690587D01*
X167901386Y-94905515D01*
X167856000Y-95133682D01*
X164126586Y-95133682D01*
X164141113Y-95111942D01*
X164199987Y-94969809D01*
X164230000Y-94818922D01*
X164230000Y-94676591D01*
X164588050Y-94318541D01*
X164602151Y-94332642D01*
X164730068Y-94418113D01*
X164872201Y-94476987D01*
X165023088Y-94507000D01*
X165176932Y-94507000D01*
X165327819Y-94476987D01*
X165469952Y-94418113D01*
X165597869Y-94332642D01*
X165706652Y-94223859D01*
X165792123Y-94095942D01*
X165850997Y-93953809D01*
X165881010Y-93802922D01*
X165881010Y-93649078D01*
X165850997Y-93498191D01*
X165792123Y-93356058D01*
X165706652Y-93228141D01*
X165597869Y-93119358D01*
X165469952Y-93033887D01*
X165327819Y-92975013D01*
X165176932Y-92945000D01*
X165023088Y-92945000D01*
X164872201Y-92975013D01*
X164730068Y-93033887D01*
X164602151Y-93119358D01*
X164501509Y-93220000D01*
X164489846Y-93220000D01*
X164465000Y-93217553D01*
X164440154Y-93220000D01*
X164440146Y-93220000D01*
X164365807Y-93227322D01*
X164270425Y-93256255D01*
X164182521Y-93303241D01*
X164105473Y-93366473D01*
X164089628Y-93385780D01*
X163514409Y-93961000D01*
X163372078Y-93961000D01*
X163221191Y-93991013D01*
X163079058Y-94049887D01*
X162951141Y-94135358D01*
X162850499Y-94236000D01*
X162584854Y-94236000D01*
X162560000Y-94233552D01*
X162535146Y-94236000D01*
X162460807Y-94243322D01*
X162365425Y-94272255D01*
X162277521Y-94319241D01*
X162200473Y-94382473D01*
X162184629Y-94401779D01*
X162115500Y-94470908D01*
X161690000Y-94045409D01*
X161690000Y-93903078D01*
X161659987Y-93752191D01*
X161601113Y-93610058D01*
X161515642Y-93482141D01*
X161406859Y-93373358D01*
X161278942Y-93287887D01*
X161136809Y-93229013D01*
X160985922Y-93199000D01*
X160832078Y-93199000D01*
X160681191Y-93229013D01*
X160539058Y-93287887D01*
X160411141Y-93373358D01*
X160302358Y-93482141D01*
X160216887Y-93610058D01*
X160158013Y-93752191D01*
X160128000Y-93903078D01*
X160128000Y-94056922D01*
X160158013Y-94207809D01*
X160216887Y-94349942D01*
X160302358Y-94477859D01*
X160411141Y-94586642D01*
X160539058Y-94672113D01*
X160681191Y-94730987D01*
X160832078Y-94761000D01*
X160974409Y-94761000D01*
X161399908Y-95186500D01*
X160708448Y-95877960D01*
X160617691Y-95896013D01*
X160475558Y-95954887D01*
X160347641Y-96040358D01*
X160238858Y-96149141D01*
X160153387Y-96277058D01*
X160094513Y-96419191D01*
X160064500Y-96570078D01*
X160064500Y-96723922D01*
X160094513Y-96874809D01*
X160153387Y-97016942D01*
X160238858Y-97144859D01*
X160284704Y-97190705D01*
X159297756Y-98177653D01*
X157692848Y-98177653D01*
X157592206Y-98077011D01*
X157464289Y-97991540D01*
X157322156Y-97932666D01*
X157171269Y-97902653D01*
X157017425Y-97902653D01*
X156866538Y-97932666D01*
X156724405Y-97991540D01*
X156596488Y-98077011D01*
X156487705Y-98185794D01*
X156402234Y-98313711D01*
X156343360Y-98455844D01*
X156313347Y-98606731D01*
X156313347Y-98760575D01*
X156343360Y-98911462D01*
X156402234Y-99053595D01*
X156487705Y-99181512D01*
X156596488Y-99290295D01*
X156724405Y-99375766D01*
X156866538Y-99434640D01*
X157017425Y-99464653D01*
X157171269Y-99464653D01*
X157322156Y-99434640D01*
X157464289Y-99375766D01*
X157592206Y-99290295D01*
X157692848Y-99189653D01*
X159482501Y-99189653D01*
X159507347Y-99192100D01*
X159532193Y-99189653D01*
X159532201Y-99189653D01*
X159606540Y-99182331D01*
X159701922Y-99153398D01*
X159789826Y-99106412D01*
X159866874Y-99043180D01*
X159882723Y-99023868D01*
X160845500Y-98061091D01*
X163454628Y-100670220D01*
X163470473Y-100689527D01*
X163547521Y-100752759D01*
X163635425Y-100799745D01*
X163708607Y-100821944D01*
X163730806Y-100828678D01*
X163740694Y-100829652D01*
X163805146Y-100836000D01*
X163805153Y-100836000D01*
X163829999Y-100838447D01*
X163854845Y-100836000D01*
X167968288Y-100836000D01*
X167990412Y-100889413D01*
X168119658Y-101082843D01*
X168230815Y-101194000D01*
X143281000Y-101194000D01*
X143281000Y-96403682D01*
X153124000Y-96403682D01*
X153124000Y-96636318D01*
X153169386Y-96864485D01*
X153258412Y-97079413D01*
X153387658Y-97272843D01*
X153552157Y-97437342D01*
X153745587Y-97566588D01*
X153960515Y-97655614D01*
X154188682Y-97701000D01*
X154421318Y-97701000D01*
X154649485Y-97655614D01*
X154864413Y-97566588D01*
X155057843Y-97437342D01*
X155222342Y-97272843D01*
X155351588Y-97079413D01*
X155440614Y-96864485D01*
X155486000Y-96636318D01*
X155486000Y-96403682D01*
X155440614Y-96175515D01*
X155351588Y-95960587D01*
X155222342Y-95767157D01*
X155057843Y-95602658D01*
X154864413Y-95473412D01*
X154649485Y-95384386D01*
X154421318Y-95339000D01*
X154188682Y-95339000D01*
X153960515Y-95384386D01*
X153745587Y-95473412D01*
X153552157Y-95602658D01*
X153387658Y-95767157D01*
X153258412Y-95960587D01*
X153169386Y-96175515D01*
X153124000Y-96403682D01*
X143281000Y-96403682D01*
X143281000Y-93863682D01*
X153124000Y-93863682D01*
X153124000Y-94096318D01*
X153169386Y-94324485D01*
X153258412Y-94539413D01*
X153387658Y-94732843D01*
X153552157Y-94897342D01*
X153745587Y-95026588D01*
X153960515Y-95115614D01*
X154188682Y-95161000D01*
X154421318Y-95161000D01*
X154649485Y-95115614D01*
X154864413Y-95026588D01*
X155057843Y-94897342D01*
X155222342Y-94732843D01*
X155351588Y-94539413D01*
X155440614Y-94324485D01*
X155486000Y-94096318D01*
X155486000Y-93863682D01*
X155440614Y-93635515D01*
X155351588Y-93420587D01*
X155222342Y-93227157D01*
X155057843Y-93062658D01*
X154864413Y-92933412D01*
X154649485Y-92844386D01*
X154421318Y-92799000D01*
X154188682Y-92799000D01*
X153960515Y-92844386D01*
X153745587Y-92933412D01*
X153552157Y-93062658D01*
X153387658Y-93227157D01*
X153258412Y-93420587D01*
X153169386Y-93635515D01*
X153124000Y-93863682D01*
X143281000Y-93863682D01*
X143281000Y-91846000D01*
X180061000Y-91846000D01*
X180061001Y-101194000D01*
%TD*%
M02*
