%TF.GenerationSoftware,KiCad,Pcbnew,(5.1.6)-1*%
%TF.CreationDate,2021-03-29T07:56:47+01:00*%
%TF.ProjectId,ow2i2c3,6f773269-3263-4332-9e6b-696361645f70,rev?*%
%TF.SameCoordinates,Original*%
%TF.FileFunction,Legend,Top*%
%TF.FilePolarity,Positive*%
%FSLAX46Y46*%
G04 Gerber Fmt 4.6, Leading zero omitted, Abs format (unit mm)*
G04 Created by KiCad (PCBNEW (5.1.6)-1) date 2021-03-29 07:56:47*
%MOMM*%
%LPD*%
G01*
G04 APERTURE LIST*
%ADD10C,0.152400*%
%ADD11C,0.180000*%
G04 APERTURE END LIST*
D10*
X170270714Y-101273428D02*
X170270714Y-100801714D01*
X170561000Y-101055714D01*
X170561000Y-100946857D01*
X170597285Y-100874285D01*
X170633571Y-100838000D01*
X170706142Y-100801714D01*
X170887571Y-100801714D01*
X170960142Y-100838000D01*
X170996428Y-100874285D01*
X171032714Y-100946857D01*
X171032714Y-101164571D01*
X170996428Y-101237142D01*
X170960142Y-101273428D01*
X170270714Y-100584000D02*
X171032714Y-100330000D01*
X170270714Y-100076000D01*
X170270714Y-99894571D02*
X170270714Y-99422857D01*
X170561000Y-99676857D01*
X170561000Y-99568000D01*
X170597285Y-99495428D01*
X170633571Y-99459142D01*
X170706142Y-99422857D01*
X170887571Y-99422857D01*
X170960142Y-99459142D01*
X170996428Y-99495428D01*
X171032714Y-99568000D01*
X171032714Y-99785714D01*
X170996428Y-99858285D01*
X170960142Y-99894571D01*
X170996428Y-98715285D02*
X171032714Y-98606428D01*
X171032714Y-98425000D01*
X170996428Y-98352428D01*
X170960142Y-98316142D01*
X170887571Y-98279857D01*
X170815000Y-98279857D01*
X170742428Y-98316142D01*
X170706142Y-98352428D01*
X170669857Y-98425000D01*
X170633571Y-98570142D01*
X170597285Y-98642714D01*
X170561000Y-98679000D01*
X170488428Y-98715285D01*
X170415857Y-98715285D01*
X170343285Y-98679000D01*
X170307000Y-98642714D01*
X170270714Y-98570142D01*
X170270714Y-98388714D01*
X170307000Y-98279857D01*
X171032714Y-97953285D02*
X170270714Y-97953285D01*
X170270714Y-97771857D01*
X170307000Y-97663000D01*
X170379571Y-97590428D01*
X170452142Y-97554142D01*
X170597285Y-97517857D01*
X170706142Y-97517857D01*
X170851285Y-97554142D01*
X170923857Y-97590428D01*
X170996428Y-97663000D01*
X171032714Y-97771857D01*
X171032714Y-97953285D01*
X170815000Y-97227571D02*
X170815000Y-96864714D01*
X171032714Y-97300142D02*
X170270714Y-97046142D01*
X171032714Y-96792142D01*
X170996428Y-96157142D02*
X171032714Y-96048285D01*
X171032714Y-95866857D01*
X170996428Y-95794285D01*
X170960142Y-95758000D01*
X170887571Y-95721714D01*
X170815000Y-95721714D01*
X170742428Y-95758000D01*
X170706142Y-95794285D01*
X170669857Y-95866857D01*
X170633571Y-96012000D01*
X170597285Y-96084571D01*
X170561000Y-96120857D01*
X170488428Y-96157142D01*
X170415857Y-96157142D01*
X170343285Y-96120857D01*
X170307000Y-96084571D01*
X170270714Y-96012000D01*
X170270714Y-95830571D01*
X170307000Y-95721714D01*
X170960142Y-94959714D02*
X170996428Y-94996000D01*
X171032714Y-95104857D01*
X171032714Y-95177428D01*
X170996428Y-95286285D01*
X170923857Y-95358857D01*
X170851285Y-95395142D01*
X170706142Y-95431428D01*
X170597285Y-95431428D01*
X170452142Y-95395142D01*
X170379571Y-95358857D01*
X170307000Y-95286285D01*
X170270714Y-95177428D01*
X170270714Y-95104857D01*
X170307000Y-94996000D01*
X170343285Y-94959714D01*
X171032714Y-94270285D02*
X171032714Y-94633142D01*
X170270714Y-94633142D01*
X170307000Y-93290571D02*
X170270714Y-93363142D01*
X170270714Y-93472000D01*
X170307000Y-93580857D01*
X170379571Y-93653428D01*
X170452142Y-93689714D01*
X170597285Y-93726000D01*
X170706142Y-93726000D01*
X170851285Y-93689714D01*
X170923857Y-93653428D01*
X170996428Y-93580857D01*
X171032714Y-93472000D01*
X171032714Y-93399428D01*
X170996428Y-93290571D01*
X170960142Y-93254285D01*
X170706142Y-93254285D01*
X170706142Y-93399428D01*
X171032714Y-92927714D02*
X170270714Y-92927714D01*
X171032714Y-92492285D01*
X170270714Y-92492285D01*
X171032714Y-92129428D02*
X170270714Y-92129428D01*
X170270714Y-91948000D01*
X170307000Y-91839142D01*
X170379571Y-91766571D01*
X170452142Y-91730285D01*
X170597285Y-91694000D01*
X170706142Y-91694000D01*
X170851285Y-91730285D01*
X170923857Y-91766571D01*
X170996428Y-91839142D01*
X171032714Y-91948000D01*
X171032714Y-92129428D01*
X152319000Y-99580571D02*
X152282714Y-99653142D01*
X152282714Y-99762000D01*
X152319000Y-99870857D01*
X152391571Y-99943428D01*
X152464142Y-99979714D01*
X152609285Y-100016000D01*
X152718142Y-100016000D01*
X152863285Y-99979714D01*
X152935857Y-99943428D01*
X153008428Y-99870857D01*
X153044714Y-99762000D01*
X153044714Y-99689428D01*
X153008428Y-99580571D01*
X152972142Y-99544285D01*
X152718142Y-99544285D01*
X152718142Y-99689428D01*
X153044714Y-99217714D02*
X152282714Y-99217714D01*
X153044714Y-98782285D01*
X152282714Y-98782285D01*
X153044714Y-98419428D02*
X152282714Y-98419428D01*
X152282714Y-98238000D01*
X152319000Y-98129142D01*
X152391571Y-98056571D01*
X152464142Y-98020285D01*
X152609285Y-97984000D01*
X152718142Y-97984000D01*
X152863285Y-98020285D01*
X152935857Y-98056571D01*
X153008428Y-98129142D01*
X153044714Y-98238000D01*
X153044714Y-98419428D01*
X152282714Y-97008000D02*
X152282714Y-96862857D01*
X152319000Y-96790285D01*
X152391571Y-96717714D01*
X152536714Y-96681428D01*
X152790714Y-96681428D01*
X152935857Y-96717714D01*
X153008428Y-96790285D01*
X153044714Y-96862857D01*
X153044714Y-97008000D01*
X153008428Y-97080571D01*
X152935857Y-97153142D01*
X152790714Y-97189428D01*
X152536714Y-97189428D01*
X152391571Y-97153142D01*
X152319000Y-97080571D01*
X152282714Y-97008000D01*
X152282714Y-96427428D02*
X153044714Y-96246000D01*
X152500428Y-96100857D01*
X153044714Y-95955714D01*
X152282714Y-95774285D01*
X152754428Y-95179714D02*
X152754428Y-94599142D01*
X153044714Y-94889428D02*
X152464142Y-94889428D01*
X152282714Y-93873428D02*
X152282714Y-94236285D01*
X152645571Y-94272571D01*
X152609285Y-94236285D01*
X152573000Y-94163714D01*
X152573000Y-93982285D01*
X152609285Y-93909714D01*
X152645571Y-93873428D01*
X152718142Y-93837142D01*
X152899571Y-93837142D01*
X152972142Y-93873428D01*
X153008428Y-93909714D01*
X153044714Y-93982285D01*
X153044714Y-94163714D01*
X153008428Y-94236285D01*
X152972142Y-94272571D01*
X152282714Y-93619428D02*
X153044714Y-93365428D01*
X152282714Y-93111428D01*
D11*
%TO.C,J1*%
X149755000Y-98170000D02*
X143129000Y-98170000D01*
X149755000Y-94870000D02*
X149755000Y-98170000D01*
X143129000Y-94870000D02*
X149755000Y-94870000D01*
X143129000Y-92710000D02*
X143129000Y-100330000D01*
X151915000Y-100330000D02*
X143129000Y-100330000D01*
X151915000Y-92710000D02*
X151915000Y-100330000D01*
X151915000Y-92710000D02*
X143129000Y-92710000D01*
%TO.C,J2*%
X171427000Y-101346000D02*
X171427000Y-91694000D01*
X180213000Y-101346000D02*
X180213000Y-91694000D01*
X171427000Y-101346000D02*
X180213000Y-101346000D01*
X171427000Y-91694000D02*
X180213000Y-91694000D01*
X180213000Y-98170000D02*
X173587000Y-98170000D01*
X173587000Y-98170000D02*
X173587000Y-94870000D01*
X173587000Y-94870000D02*
X180213000Y-94870000D01*
%TO.C,U1*%
X166732000Y-100067000D02*
X166732000Y-99292000D01*
X162432000Y-100067000D02*
X162432000Y-99292000D01*
X162432000Y-95767000D02*
X162432000Y-96542000D01*
X166732000Y-95767000D02*
X166732000Y-96542000D01*
X162432000Y-100067000D02*
X163207000Y-100067000D01*
X162432000Y-95767000D02*
X163207000Y-95767000D01*
X166732000Y-100067000D02*
X165957000Y-100067000D01*
%TO.C,R1*%
X158246000Y-97327000D02*
X157246000Y-97327000D01*
X157246000Y-95967000D02*
X158246000Y-95967000D01*
%TO.C,U3*%
X159947000Y-92309000D02*
X157497000Y-92309000D01*
X158147000Y-95529000D02*
X159947000Y-95529000D01*
%TO.C,Q1*%
X158113000Y-100878000D02*
X156653000Y-100878000D01*
X158113000Y-97718000D02*
X155953000Y-97718000D01*
X158113000Y-97718000D02*
X158113000Y-98648000D01*
X158113000Y-100878000D02*
X158113000Y-99948000D01*
%TO.C,R4*%
X165780000Y-93492000D02*
X165780000Y-94492000D01*
X164420000Y-94492000D02*
X164420000Y-93492000D01*
%TO.C,R3*%
X167558000Y-93492000D02*
X167558000Y-94492000D01*
X166198000Y-94492000D02*
X166198000Y-93492000D01*
%TO.C,R2*%
X160913000Y-97327000D02*
X159913000Y-97327000D01*
X159913000Y-95967000D02*
X160913000Y-95967000D01*
%TO.C,C4*%
X161198000Y-94342000D02*
X161198000Y-93642000D01*
X162398000Y-93642000D02*
X162398000Y-94342000D01*
%TO.C,C3*%
X156810000Y-93872000D02*
X156810000Y-94572000D01*
X155610000Y-94572000D02*
X155610000Y-93872000D01*
%TO.C,C2*%
X159932000Y-98798000D02*
X159932000Y-99798000D01*
X161632000Y-99798000D02*
X161632000Y-98798000D01*
%TO.C,C1*%
X162849000Y-94342000D02*
X162849000Y-93642000D01*
X164049000Y-93642000D02*
X164049000Y-94342000D01*
%TO.C,U1*%
D10*
X162106428Y-100420714D02*
X162106428Y-101037571D01*
X162142714Y-101110142D01*
X162179000Y-101146428D01*
X162251571Y-101182714D01*
X162396714Y-101182714D01*
X162469285Y-101146428D01*
X162505571Y-101110142D01*
X162541857Y-101037571D01*
X162541857Y-100420714D01*
X163303857Y-101182714D02*
X162868428Y-101182714D01*
X163086142Y-101182714D02*
X163086142Y-100420714D01*
X163013571Y-100529571D01*
X162941000Y-100602142D01*
X162868428Y-100638428D01*
%TO.C,R1*%
X156427714Y-96774000D02*
X156064857Y-97028000D01*
X156427714Y-97209428D02*
X155665714Y-97209428D01*
X155665714Y-96919142D01*
X155702000Y-96846571D01*
X155738285Y-96810285D01*
X155810857Y-96774000D01*
X155919714Y-96774000D01*
X155992285Y-96810285D01*
X156028571Y-96846571D01*
X156064857Y-96919142D01*
X156064857Y-97209428D01*
X156427714Y-96048285D02*
X156427714Y-96483714D01*
X156427714Y-96266000D02*
X155665714Y-96266000D01*
X155774571Y-96338571D01*
X155847142Y-96411142D01*
X155883428Y-96483714D01*
%TO.C,U3*%
X158650214Y-94497071D02*
X159267071Y-94497071D01*
X159339642Y-94460785D01*
X159375928Y-94424500D01*
X159412214Y-94351928D01*
X159412214Y-94206785D01*
X159375928Y-94134214D01*
X159339642Y-94097928D01*
X159267071Y-94061642D01*
X158650214Y-94061642D01*
X158650214Y-93771357D02*
X158650214Y-93299642D01*
X158940500Y-93553642D01*
X158940500Y-93444785D01*
X158976785Y-93372214D01*
X159013071Y-93335928D01*
X159085642Y-93299642D01*
X159267071Y-93299642D01*
X159339642Y-93335928D01*
X159375928Y-93372214D01*
X159412214Y-93444785D01*
X159412214Y-93662500D01*
X159375928Y-93735071D01*
X159339642Y-93771357D01*
%TO.C,Q1*%
X157770285Y-99386571D02*
X157734000Y-99459142D01*
X157661428Y-99531714D01*
X157552571Y-99640571D01*
X157516285Y-99713142D01*
X157516285Y-99785714D01*
X157697714Y-99749428D02*
X157661428Y-99822000D01*
X157588857Y-99894571D01*
X157443714Y-99930857D01*
X157189714Y-99930857D01*
X157044571Y-99894571D01*
X156972000Y-99822000D01*
X156935714Y-99749428D01*
X156935714Y-99604285D01*
X156972000Y-99531714D01*
X157044571Y-99459142D01*
X157189714Y-99422857D01*
X157443714Y-99422857D01*
X157588857Y-99459142D01*
X157661428Y-99531714D01*
X157697714Y-99604285D01*
X157697714Y-99749428D01*
X157697714Y-98697142D02*
X157697714Y-99132571D01*
X157697714Y-98914857D02*
X156935714Y-98914857D01*
X157044571Y-98987428D01*
X157117142Y-99060000D01*
X157153428Y-99132571D01*
%TO.C,R4*%
X164973000Y-92546714D02*
X164719000Y-92183857D01*
X164537571Y-92546714D02*
X164537571Y-91784714D01*
X164827857Y-91784714D01*
X164900428Y-91821000D01*
X164936714Y-91857285D01*
X164973000Y-91929857D01*
X164973000Y-92038714D01*
X164936714Y-92111285D01*
X164900428Y-92147571D01*
X164827857Y-92183857D01*
X164537571Y-92183857D01*
X165626142Y-92038714D02*
X165626142Y-92546714D01*
X165444714Y-91748428D02*
X165263285Y-92292714D01*
X165735000Y-92292714D01*
%TO.C,R3*%
X166751000Y-92546714D02*
X166497000Y-92183857D01*
X166315571Y-92546714D02*
X166315571Y-91784714D01*
X166605857Y-91784714D01*
X166678428Y-91821000D01*
X166714714Y-91857285D01*
X166751000Y-91929857D01*
X166751000Y-92038714D01*
X166714714Y-92111285D01*
X166678428Y-92147571D01*
X166605857Y-92183857D01*
X166315571Y-92183857D01*
X167005000Y-91784714D02*
X167476714Y-91784714D01*
X167222714Y-92075000D01*
X167331571Y-92075000D01*
X167404142Y-92111285D01*
X167440428Y-92147571D01*
X167476714Y-92220142D01*
X167476714Y-92401571D01*
X167440428Y-92474142D01*
X167404142Y-92510428D01*
X167331571Y-92546714D01*
X167113857Y-92546714D01*
X167041285Y-92510428D01*
X167005000Y-92474142D01*
%TO.C,R2*%
X159004000Y-98388714D02*
X158750000Y-98025857D01*
X158568571Y-98388714D02*
X158568571Y-97626714D01*
X158858857Y-97626714D01*
X158931428Y-97663000D01*
X158967714Y-97699285D01*
X159004000Y-97771857D01*
X159004000Y-97880714D01*
X158967714Y-97953285D01*
X158931428Y-97989571D01*
X158858857Y-98025857D01*
X158568571Y-98025857D01*
X159294285Y-97699285D02*
X159330571Y-97663000D01*
X159403142Y-97626714D01*
X159584571Y-97626714D01*
X159657142Y-97663000D01*
X159693428Y-97699285D01*
X159729714Y-97771857D01*
X159729714Y-97844428D01*
X159693428Y-97953285D01*
X159258000Y-98388714D01*
X159729714Y-98388714D01*
%TO.C,C4*%
X161671000Y-92474142D02*
X161634714Y-92510428D01*
X161525857Y-92546714D01*
X161453285Y-92546714D01*
X161344428Y-92510428D01*
X161271857Y-92437857D01*
X161235571Y-92365285D01*
X161199285Y-92220142D01*
X161199285Y-92111285D01*
X161235571Y-91966142D01*
X161271857Y-91893571D01*
X161344428Y-91821000D01*
X161453285Y-91784714D01*
X161525857Y-91784714D01*
X161634714Y-91821000D01*
X161671000Y-91857285D01*
X162324142Y-92038714D02*
X162324142Y-92546714D01*
X162142714Y-91748428D02*
X161961285Y-92292714D01*
X162433000Y-92292714D01*
%TO.C,C3*%
X156083000Y-92728142D02*
X156046714Y-92764428D01*
X155937857Y-92800714D01*
X155865285Y-92800714D01*
X155756428Y-92764428D01*
X155683857Y-92691857D01*
X155647571Y-92619285D01*
X155611285Y-92474142D01*
X155611285Y-92365285D01*
X155647571Y-92220142D01*
X155683857Y-92147571D01*
X155756428Y-92075000D01*
X155865285Y-92038714D01*
X155937857Y-92038714D01*
X156046714Y-92075000D01*
X156083000Y-92111285D01*
X156337000Y-92038714D02*
X156808714Y-92038714D01*
X156554714Y-92329000D01*
X156663571Y-92329000D01*
X156736142Y-92365285D01*
X156772428Y-92401571D01*
X156808714Y-92474142D01*
X156808714Y-92655571D01*
X156772428Y-92728142D01*
X156736142Y-92764428D01*
X156663571Y-92800714D01*
X156445857Y-92800714D01*
X156373285Y-92764428D01*
X156337000Y-92728142D01*
%TO.C,C2*%
X159004000Y-100983142D02*
X158967714Y-101019428D01*
X158858857Y-101055714D01*
X158786285Y-101055714D01*
X158677428Y-101019428D01*
X158604857Y-100946857D01*
X158568571Y-100874285D01*
X158532285Y-100729142D01*
X158532285Y-100620285D01*
X158568571Y-100475142D01*
X158604857Y-100402571D01*
X158677428Y-100330000D01*
X158786285Y-100293714D01*
X158858857Y-100293714D01*
X158967714Y-100330000D01*
X159004000Y-100366285D01*
X159294285Y-100366285D02*
X159330571Y-100330000D01*
X159403142Y-100293714D01*
X159584571Y-100293714D01*
X159657142Y-100330000D01*
X159693428Y-100366285D01*
X159729714Y-100438857D01*
X159729714Y-100511428D01*
X159693428Y-100620285D01*
X159258000Y-101055714D01*
X159729714Y-101055714D01*
%TO.C,C1*%
X163322000Y-92474142D02*
X163285714Y-92510428D01*
X163176857Y-92546714D01*
X163104285Y-92546714D01*
X162995428Y-92510428D01*
X162922857Y-92437857D01*
X162886571Y-92365285D01*
X162850285Y-92220142D01*
X162850285Y-92111285D01*
X162886571Y-91966142D01*
X162922857Y-91893571D01*
X162995428Y-91821000D01*
X163104285Y-91784714D01*
X163176857Y-91784714D01*
X163285714Y-91821000D01*
X163322000Y-91857285D01*
X164047714Y-92546714D02*
X163612285Y-92546714D01*
X163830000Y-92546714D02*
X163830000Y-91784714D01*
X163757428Y-91893571D01*
X163684857Y-91966142D01*
X163612285Y-92002428D01*
%TD*%
M02*
